<mxfile host="Electron" agent="Mozilla/5.0 (Windows NT 10.0; Win64; x64) AppleWebKit/537.36 (KHTML, like Gecko) draw.io/26.1.1 Chrome/132.0.6834.210 Electron/34.3.3 Safari/537.36" version="26.1.1">
  <diagram name="第 1 页" id="Jove_QFSc6au4DYaYupq">
    <mxGraphModel dx="537" dy="901" grid="1" gridSize="10" guides="1" tooltips="1" connect="1" arrows="1" fold="1" page="1" pageScale="1" pageWidth="827" pageHeight="1169" math="0" shadow="0">
      <root>
        <mxCell id="0" />
        <mxCell id="1" parent="0" />
        <mxCell id="rd879yIeKa1yKaVDrpLS-1" value="SBEAM商城购买流程泳道图" style="swimlane;childLayout=stackLayout;resizeParent=1;resizeParentMax=0;startSize=20;html=1;" vertex="1" parent="1">
          <mxGeometry x="330" y="140" width="480" height="480" as="geometry" />
        </mxCell>
        <mxCell id="rd879yIeKa1yKaVDrpLS-2" value="用户" style="swimlane;startSize=20;html=1;" vertex="1" parent="rd879yIeKa1yKaVDrpLS-1">
          <mxGeometry y="20" width="160" height="460" as="geometry" />
        </mxCell>
        <mxCell id="rd879yIeKa1yKaVDrpLS-5" value="浏览首页/搜索游戏" style="rounded=1;whiteSpace=wrap;html=1;" vertex="1" parent="rd879yIeKa1yKaVDrpLS-2">
          <mxGeometry x="10" y="30" width="140" height="30" as="geometry" />
        </mxCell>
        <mxCell id="rd879yIeKa1yKaVDrpLS-7" value="点击某游戏进入详情页" style="rounded=1;whiteSpace=wrap;html=1;" vertex="1" parent="rd879yIeKa1yKaVDrpLS-2">
          <mxGeometry x="10" y="70" width="140" height="30" as="geometry" />
        </mxCell>
        <mxCell id="rd879yIeKa1yKaVDrpLS-8" value="点击加入愿望单" style="rounded=1;whiteSpace=wrap;html=1;" vertex="1" parent="rd879yIeKa1yKaVDrpLS-2">
          <mxGeometry x="10" y="110" width="140" height="30" as="geometry" />
        </mxCell>
        <mxCell id="rd879yIeKa1yKaVDrpLS-9" value="在愿望单中选择支付方式并支付" style="rounded=1;whiteSpace=wrap;html=1;" vertex="1" parent="rd879yIeKa1yKaVDrpLS-2">
          <mxGeometry x="10" y="150" width="140" height="30" as="geometry" />
        </mxCell>
        <mxCell id="rd879yIeKa1yKaVDrpLS-10" value="支付成功" style="rounded=1;whiteSpace=wrap;html=1;" vertex="1" parent="rd879yIeKa1yKaVDrpLS-2">
          <mxGeometry x="10" y="190" width="140" height="30" as="geometry" />
        </mxCell>
        <mxCell id="rd879yIeKa1yKaVDrpLS-3" value="SBEAM商城" style="swimlane;startSize=20;html=1;" vertex="1" parent="rd879yIeKa1yKaVDrpLS-1">
          <mxGeometry x="160" y="20" width="160" height="460" as="geometry" />
        </mxCell>
        <mxCell id="rd879yIeKa1yKaVDrpLS-11" value="返回游戏列表" style="rounded=1;whiteSpace=wrap;html=1;" vertex="1" parent="rd879yIeKa1yKaVDrpLS-3">
          <mxGeometry x="10" y="30" width="140" height="30" as="geometry" />
        </mxCell>
        <mxCell id="rd879yIeKa1yKaVDrpLS-13" value="加载游戏详情" style="rounded=1;whiteSpace=wrap;html=1;" vertex="1" parent="rd879yIeKa1yKaVDrpLS-3">
          <mxGeometry x="10" y="70" width="140" height="30" as="geometry" />
        </mxCell>
        <mxCell id="rd879yIeKa1yKaVDrpLS-14" value="创建订单" style="rounded=1;whiteSpace=wrap;html=1;" vertex="1" parent="rd879yIeKa1yKaVDrpLS-3">
          <mxGeometry x="10" y="110" width="140" height="30" as="geometry" />
        </mxCell>
        <mxCell id="rd879yIeKa1yKaVDrpLS-15" value="展示结算页" style="rounded=1;whiteSpace=wrap;html=1;" vertex="1" parent="rd879yIeKa1yKaVDrpLS-3">
          <mxGeometry x="10" y="150" width="140" height="30" as="geometry" />
        </mxCell>
        <mxCell id="rd879yIeKa1yKaVDrpLS-16" value="发起支付请求" style="rounded=1;whiteSpace=wrap;html=1;" vertex="1" parent="rd879yIeKa1yKaVDrpLS-3">
          <mxGeometry x="10" y="190" width="140" height="30" as="geometry" />
        </mxCell>
        <mxCell id="rd879yIeKa1yKaVDrpLS-17" value="验证支付结果" style="rounded=1;whiteSpace=wrap;html=1;" vertex="1" parent="rd879yIeKa1yKaVDrpLS-3">
          <mxGeometry x="10" y="230" width="140" height="30" as="geometry" />
        </mxCell>
        <mxCell id="rd879yIeKa1yKaVDrpLS-18" value="更新订单状态" style="rounded=1;whiteSpace=wrap;html=1;" vertex="1" parent="rd879yIeKa1yKaVDrpLS-3">
          <mxGeometry x="10" y="270" width="140" height="30" as="geometry" />
        </mxCell>
        <mxCell id="rd879yIeKa1yKaVDrpLS-19" value="添加游戏到游戏库" style="rounded=1;whiteSpace=wrap;html=1;" vertex="1" parent="rd879yIeKa1yKaVDrpLS-3">
          <mxGeometry x="10" y="310" width="140" height="30" as="geometry" />
        </mxCell>
        <mxCell id="rd879yIeKa1yKaVDrpLS-32" value="" style="endArrow=classic;html=1;rounded=0;entryX=0.5;entryY=0;entryDx=0;entryDy=0;exitX=0.5;exitY=1;exitDx=0;exitDy=0;" edge="1" parent="rd879yIeKa1yKaVDrpLS-3" source="rd879yIeKa1yKaVDrpLS-17" target="rd879yIeKa1yKaVDrpLS-18">
          <mxGeometry width="50" height="50" relative="1" as="geometry">
            <mxPoint x="290" y="380" as="sourcePoint" />
            <mxPoint x="90" y="280" as="targetPoint" />
            <Array as="points" />
          </mxGeometry>
        </mxCell>
        <mxCell id="rd879yIeKa1yKaVDrpLS-33" value="" style="endArrow=classic;html=1;rounded=0;entryX=0.5;entryY=0;entryDx=0;entryDy=0;exitX=0.5;exitY=1;exitDx=0;exitDy=0;" edge="1" parent="rd879yIeKa1yKaVDrpLS-3" source="rd879yIeKa1yKaVDrpLS-18" target="rd879yIeKa1yKaVDrpLS-19">
          <mxGeometry width="50" height="50" relative="1" as="geometry">
            <mxPoint x="90" y="270" as="sourcePoint" />
            <mxPoint x="90" y="280" as="targetPoint" />
            <Array as="points" />
          </mxGeometry>
        </mxCell>
        <mxCell id="rd879yIeKa1yKaVDrpLS-34" value="" style="endArrow=classic;html=1;rounded=0;entryX=0.5;entryY=0;entryDx=0;entryDy=0;exitX=0.5;exitY=1;exitDx=0;exitDy=0;" edge="1" parent="rd879yIeKa1yKaVDrpLS-3" source="rd879yIeKa1yKaVDrpLS-14" target="rd879yIeKa1yKaVDrpLS-15">
          <mxGeometry width="50" height="50" relative="1" as="geometry">
            <mxPoint x="100" y="280" as="sourcePoint" />
            <mxPoint x="100" y="290" as="targetPoint" />
            <Array as="points" />
          </mxGeometry>
        </mxCell>
        <mxCell id="rd879yIeKa1yKaVDrpLS-4" value="支付平台" style="swimlane;startSize=20;html=1;" vertex="1" parent="rd879yIeKa1yKaVDrpLS-1">
          <mxGeometry x="320" y="20" width="160" height="460" as="geometry" />
        </mxCell>
        <mxCell id="rd879yIeKa1yKaVDrpLS-12" value="浏览首页/搜索游戏" style="rounded=1;whiteSpace=wrap;html=1;" vertex="1" parent="rd879yIeKa1yKaVDrpLS-4">
          <mxGeometry x="10" y="190" width="140" height="30" as="geometry" />
        </mxCell>
        <mxCell id="rd879yIeKa1yKaVDrpLS-21" style="edgeStyle=orthogonalEdgeStyle;rounded=0;orthogonalLoop=1;jettySize=auto;html=1;" edge="1" parent="rd879yIeKa1yKaVDrpLS-1" source="rd879yIeKa1yKaVDrpLS-5" target="rd879yIeKa1yKaVDrpLS-11">
          <mxGeometry relative="1" as="geometry" />
        </mxCell>
        <mxCell id="rd879yIeKa1yKaVDrpLS-23" style="edgeStyle=orthogonalEdgeStyle;rounded=0;orthogonalLoop=1;jettySize=auto;html=1;entryX=0;entryY=0.5;entryDx=0;entryDy=0;" edge="1" parent="rd879yIeKa1yKaVDrpLS-1" source="rd879yIeKa1yKaVDrpLS-7" target="rd879yIeKa1yKaVDrpLS-13">
          <mxGeometry relative="1" as="geometry" />
        </mxCell>
        <mxCell id="rd879yIeKa1yKaVDrpLS-24" style="edgeStyle=orthogonalEdgeStyle;rounded=0;orthogonalLoop=1;jettySize=auto;html=1;" edge="1" parent="rd879yIeKa1yKaVDrpLS-1" source="rd879yIeKa1yKaVDrpLS-8" target="rd879yIeKa1yKaVDrpLS-14">
          <mxGeometry relative="1" as="geometry" />
        </mxCell>
        <mxCell id="rd879yIeKa1yKaVDrpLS-25" style="edgeStyle=orthogonalEdgeStyle;rounded=0;orthogonalLoop=1;jettySize=auto;html=1;" edge="1" parent="rd879yIeKa1yKaVDrpLS-1" source="rd879yIeKa1yKaVDrpLS-9" target="rd879yIeKa1yKaVDrpLS-15">
          <mxGeometry relative="1" as="geometry" />
        </mxCell>
        <mxCell id="rd879yIeKa1yKaVDrpLS-27" style="edgeStyle=orthogonalEdgeStyle;rounded=0;orthogonalLoop=1;jettySize=auto;html=1;" edge="1" parent="rd879yIeKa1yKaVDrpLS-1" source="rd879yIeKa1yKaVDrpLS-16" target="rd879yIeKa1yKaVDrpLS-12">
          <mxGeometry relative="1" as="geometry" />
        </mxCell>
        <mxCell id="rd879yIeKa1yKaVDrpLS-31" value="" style="edgeStyle=segmentEdgeStyle;endArrow=classic;html=1;curved=0;rounded=0;endSize=8;startSize=8;exitX=0.5;exitY=1;exitDx=0;exitDy=0;entryX=1;entryY=0.5;entryDx=0;entryDy=0;" edge="1" parent="rd879yIeKa1yKaVDrpLS-1" source="rd879yIeKa1yKaVDrpLS-12" target="rd879yIeKa1yKaVDrpLS-17">
          <mxGeometry width="50" height="50" relative="1" as="geometry">
            <mxPoint x="430" y="280" as="sourcePoint" />
            <mxPoint x="320" y="300" as="targetPoint" />
            <Array as="points">
              <mxPoint x="400" y="265" />
            </Array>
          </mxGeometry>
        </mxCell>
        <mxCell id="rd879yIeKa1yKaVDrpLS-35" style="edgeStyle=orthogonalEdgeStyle;rounded=0;orthogonalLoop=1;jettySize=auto;html=1;" edge="1" parent="rd879yIeKa1yKaVDrpLS-1" source="rd879yIeKa1yKaVDrpLS-13" target="rd879yIeKa1yKaVDrpLS-7">
          <mxGeometry relative="1" as="geometry" />
        </mxCell>
        <mxCell id="rd879yIeKa1yKaVDrpLS-36" style="edgeStyle=orthogonalEdgeStyle;rounded=0;orthogonalLoop=1;jettySize=auto;html=1;" edge="1" parent="rd879yIeKa1yKaVDrpLS-1" source="rd879yIeKa1yKaVDrpLS-14" target="rd879yIeKa1yKaVDrpLS-8">
          <mxGeometry relative="1" as="geometry" />
        </mxCell>
        <mxCell id="rd879yIeKa1yKaVDrpLS-37" style="edgeStyle=orthogonalEdgeStyle;rounded=0;orthogonalLoop=1;jettySize=auto;html=1;" edge="1" parent="rd879yIeKa1yKaVDrpLS-1" source="rd879yIeKa1yKaVDrpLS-15" target="rd879yIeKa1yKaVDrpLS-9">
          <mxGeometry relative="1" as="geometry" />
        </mxCell>
        <mxCell id="rd879yIeKa1yKaVDrpLS-38" style="edgeStyle=orthogonalEdgeStyle;rounded=0;orthogonalLoop=1;jettySize=auto;html=1;exitX=0;exitY=0.5;exitDx=0;exitDy=0;entryX=1;entryY=0.5;entryDx=0;entryDy=0;" edge="1" parent="rd879yIeKa1yKaVDrpLS-1" source="rd879yIeKa1yKaVDrpLS-16" target="rd879yIeKa1yKaVDrpLS-10">
          <mxGeometry relative="1" as="geometry" />
        </mxCell>
      </root>
    </mxGraphModel>
  </diagram>
</mxfile>
